<svg width="571" height="539" viewBox="0 0 571 539" fill="none" xmlns="http://www.w3.org/2000/svg">
<g clip-path="url(#clip0)">
<path d="M571 536.159H185.68V537.818H571V536.159Z" fill="black"/>
<path d="M499.09 253.942C499.832 254.812 500.382 255.828 500.706 256.924C501.029 258.021 501.118 259.172 500.968 260.305C500.817 261.438 500.43 262.527 499.831 263.501C499.232 264.475 498.436 265.312 497.492 265.959L457.614 293.3L440.055 304.99C439.057 305.654 437.848 305.924 436.663 305.747C435.477 305.57 434.4 304.959 433.641 304.032C433.198 303.492 432.878 302.862 432.703 302.186C432.528 301.511 432.502 300.805 432.627 300.119C432.752 299.432 433.024 298.78 433.426 298.209C433.828 297.638 434.349 297.161 434.953 296.81L451.961 286.948L481.643 258.718L462.562 238.251L476.696 227.665L499.09 253.942Z" fill="#BD6139"/>
<path d="M405.317 511.378H395.562L389.768 430.922L414.504 430.216L405.317 511.378Z" fill="#BD6139"/>
<path d="M406.024 537.491C403.423 538.676 401.244 529.072 399.05 531.225C392.913 537.248 383.516 538.559 375.324 535.93L378.191 535.898C377.697 535.739 377.24 535.482 376.848 535.142C376.456 534.801 376.138 534.385 375.912 533.919C375.686 533.452 375.557 532.944 375.533 532.426C375.509 531.908 375.591 531.391 375.773 530.905C375.991 530.324 376.348 529.805 376.811 529.392C377.275 528.979 377.832 528.685 378.435 528.534L384.961 526.905L395.209 508.908L405.67 508.202C408.002 511.171 409.63 514.63 410.431 518.318C411.231 522.006 411.184 525.827 410.293 529.494C409.343 533.363 407.878 536.646 406.024 537.491Z" fill="black"/>
<path d="M470.266 511.378H460.511L454.718 430.922L480.16 425.982L470.266 511.378Z" fill="#BD6139"/>
<path d="M470.972 537.491C468.371 538.676 466.193 529.072 463.999 531.225C457.862 537.248 448.465 538.559 440.273 535.93L443.14 535.898C442.646 535.739 442.189 535.482 441.797 535.142C441.405 534.801 441.087 534.385 440.861 533.919C440.635 533.452 440.506 532.944 440.482 532.426C440.458 531.908 440.54 531.391 440.722 530.905C440.94 530.324 441.297 529.805 441.76 529.392C442.224 528.979 442.781 528.684 443.384 528.534L449.91 526.905L460.158 508.908L471.326 507.496L471.608 507.957C473.767 511.432 475.159 515.327 475.691 519.381C476.223 523.436 475.883 527.557 474.694 531.471C473.765 534.442 472.501 536.794 470.972 537.491Z" fill="black"/>
<path d="M481.326 229.485C472.356 230.731 466.145 235.637 463.616 245.424L447.127 215.022C446.149 213.089 445.902 210.87 446.429 208.771C446.957 206.671 448.224 204.831 450 203.589C451.884 202.271 454.202 201.721 456.478 202.054C458.755 202.387 460.818 203.576 462.245 205.379L481.326 229.485Z" fill="#AFD4E3"/>
<path d="M498.605 422.453C458.514 440.167 417.485 442.347 375.634 430.922C390.917 371.731 408.961 318.21 408.85 274.245L449.841 270.716L456.152 280.708C471.126 304.414 481.462 330.741 486.612 358.294L498.605 422.453Z" fill="black"/>
<path d="M431.466 183.203C443.175 183.203 452.667 173.723 452.667 162.03C452.667 150.337 443.175 140.857 431.466 140.857C419.756 140.857 410.264 150.337 410.264 162.03C410.264 173.723 419.756 183.203 431.466 183.203Z" fill="#BD6139"/>
<path d="M454.787 199.435L428.639 200.846L424.398 177.556L445.6 174.028L454.787 199.435Z" fill="#BD6139"/>
<path d="M451.961 274.245L423.313 275.051L408.85 277.068C401.751 253.649 395.774 230.284 410.264 210.727L427.225 193.789L452.667 193.083L453.004 193.275C457.045 195.587 460.176 199.204 461.883 203.531C463.589 207.858 463.768 212.636 462.391 217.078C456.078 237.567 452.022 256.915 451.961 274.245Z" fill="#AFD4E3"/>
<path d="M408.144 339.88L406.367 364.132C406.271 365.431 405.71 366.652 404.784 367.57C403.859 368.488 402.633 369.042 401.331 369.128C400.581 369.178 399.829 369.071 399.123 368.815C398.417 368.559 397.772 368.158 397.229 367.639C396.686 367.119 396.258 366.493 395.971 365.799C395.685 365.106 395.546 364.36 395.564 363.609L396.129 339.88L413.797 272.833L414.504 231.9L434.293 231.194L432.879 278.479L408.144 339.88Z" fill="#BD6139"/>
<path d="M436.413 234.723C428.023 231.316 420.187 232.457 413.091 239.663L414.063 205.102C414.185 202.94 415.084 200.896 416.593 199.342C418.103 197.788 420.122 196.83 422.282 196.642C424.574 196.443 426.856 197.127 428.66 198.553C430.463 199.98 431.652 202.041 431.984 204.315L436.413 234.723Z" fill="#AFD4E3"/>
<path d="M476.343 256.248H411.324C426.492 216.139 431.383 178.826 411.324 146.856C411.668 137.254 424.001 128.93 433.578 129.85C444.89 130.936 460.089 139.236 462.208 150.385L476.343 256.248Z" fill="black"/>
<path d="M269.13 128.087H266.165V46.9561C266.165 40.7898 264.948 34.6838 262.585 28.9868C260.222 23.2898 256.759 18.1134 252.393 13.7531C248.026 9.39282 242.843 5.93406 237.138 3.5743C231.433 1.21454 225.319 2.50191e-06 219.144 2.0981e-05H47.021C40.8461 7.36484e-06 34.7317 1.21456 29.0268 3.57432C23.322 5.93408 18.1384 9.39284 13.7721 13.7531C9.40581 18.1134 5.94227 23.2898 3.57924 28.9868C1.21622 34.6838 -6.81747e-06 40.7898 0 46.9562V492.044C-4.86962e-06 498.21 1.21622 504.316 3.57924 510.013C5.94227 515.71 9.40581 520.887 13.7721 525.247C18.1384 529.607 23.322 533.066 29.0268 535.426C34.7317 537.785 40.8461 539 47.021 539H219.144C225.319 539 231.433 537.785 237.138 535.426C242.843 533.066 248.026 529.607 252.393 525.247C256.759 520.887 260.222 515.71 262.585 510.013C264.948 504.316 266.165 498.21 266.165 492.044V185.837H269.13V128.087Z" fill="black"/>
<path d="M221.041 12.2164H198.573C199.607 14.7461 200.001 17.4906 199.722 20.2084C199.443 22.9261 198.498 25.5336 196.972 27.8011C195.447 30.0686 193.386 31.9266 190.971 33.2113C188.557 34.496 185.863 35.1681 183.127 35.1683H84.5203C81.7845 35.1681 79.0908 34.496 76.6764 33.2113C74.262 31.9266 72.201 30.0686 70.675 27.8011C69.149 25.5336 68.2049 22.9261 67.9257 20.2084C67.6466 17.4906 68.041 14.7461 69.0742 12.2164H48.0893C43.478 12.2164 38.9118 13.1234 34.6515 14.8856C30.3912 16.6479 26.5202 19.2308 23.2595 22.487C19.9988 25.7432 17.4122 29.6089 15.6476 33.8633C13.8829 38.1178 12.9746 42.6776 12.9746 47.2826V491.717C12.9746 496.322 13.8829 500.882 15.6476 505.137C17.4122 509.391 19.9988 513.257 23.2595 516.513C26.5202 519.769 30.3912 522.352 34.6515 524.114C38.9118 525.877 43.478 526.784 48.0893 526.784H221.041C225.652 526.784 230.219 525.877 234.479 524.114C238.739 522.352 242.61 519.769 245.871 516.513C249.132 513.257 251.718 509.391 253.483 505.137C255.247 500.882 256.156 496.322 256.156 491.717V47.2826C256.156 37.9824 252.456 29.0632 245.871 22.487C239.286 15.9108 230.354 12.2164 221.041 12.2164Z" fill="white"/>
<path d="M225.786 81.6402H43.3445V237.909H225.786V81.6402Z" fill="#DE8B5F"/>
<path d="M97.4836 270.496C104.856 270.496 110.833 264.527 110.833 257.165C110.833 249.802 104.856 243.834 97.4836 243.834C90.111 243.834 84.1343 249.802 84.1343 257.165C84.1343 264.527 90.111 270.496 97.4836 270.496Z" fill="#AFD4E3"/>
<path d="M104.158 256.054H98.5962V250.5H96.3713V256.054H90.8091V258.276H96.3713V263.831H98.5962V258.276H104.158V256.054Z" fill="white"/>
<path d="M167.939 270.496C175.311 270.496 181.288 264.527 181.288 257.165C181.288 249.802 175.311 243.834 167.939 243.834C160.566 243.834 154.589 249.802 154.589 257.165C154.589 264.527 160.566 270.496 167.939 270.496Z" fill="#AFD4E3"/>
<path d="M174.613 258.276V256.054H161.264V258.276H174.613Z" fill="white"/>
<path d="M141.37 101.129H126.952C126.445 101.129 125.959 101.33 125.6 101.688C125.242 102.046 125.041 102.532 125.041 103.038V109.358C125.041 109.864 125.242 110.349 125.6 110.707C125.959 111.065 126.445 111.266 126.952 111.266H129.341V120.735H138.98V111.266H141.369C141.876 111.266 142.363 111.065 142.721 110.707C143.08 110.349 143.281 109.864 143.281 109.358V103.038C143.281 102.532 143.08 102.046 142.721 101.688C142.363 101.33 141.876 101.129 141.37 101.129Z" fill="#AFD4E3"/>
<path d="M155.81 158.966C146.98 146.063 142.467 130.701 142.915 115.08C142.923 114.719 142.806 114.367 142.584 114.083C142.361 113.799 142.047 113.601 141.695 113.522V110.791H126.468V113.484H126.258C126.053 113.484 125.85 113.525 125.66 113.604C125.471 113.682 125.299 113.797 125.154 113.942C125.009 114.088 124.894 114.26 124.816 114.449C124.738 114.639 124.698 114.841 124.698 115.046C124.698 115.084 124.699 115.122 124.702 115.16C125.902 131.859 121.851 146.834 112.55 160.086C112.015 160.847 111.741 161.762 111.771 162.691L113.436 214.123C113.476 215.27 113.958 216.357 114.781 217.158C115.605 217.959 116.707 218.411 117.856 218.42H152.297C153.459 218.411 154.572 217.948 155.398 217.131C156.224 216.315 156.698 215.208 156.72 214.047L157.361 164.111C157.38 162.279 156.839 160.484 155.81 158.966Z" fill="black"/>
<path opacity="0.2" d="M138.364 103.188C138.364 104.281 137.93 105.328 137.156 106.1C136.383 106.873 135.334 107.307 134.24 107.307C133.146 107.307 132.097 106.873 131.324 106.1C130.551 105.328 130.116 104.281 130.116 103.188" fill="black"/>
<path d="M150.358 176.05H146.188C145.79 173.47 144.48 171.117 142.496 169.417C140.511 167.718 137.984 166.784 135.369 166.784C132.755 166.784 130.227 167.718 128.243 169.417C126.259 171.117 124.949 173.47 124.551 176.05H120.38C119.937 176.05 119.498 176.145 119.095 176.33C118.692 176.516 118.333 176.786 118.044 177.122C117.755 177.458 117.543 177.853 117.421 178.279C117.299 178.705 117.271 179.152 117.338 179.59L121.868 208.996H147.881L153.383 179.69C153.467 179.246 153.451 178.789 153.337 178.352C153.224 177.915 153.015 177.508 152.727 177.16C152.438 176.813 152.076 176.533 151.666 176.341C151.257 176.149 150.81 176.05 150.358 176.05V176.05Z" fill="#AFD4E3"/>
<path d="M225.786 301.602H43.3445V457.87H225.786V301.602Z" fill="#DE8B5F"/>
<path d="M97.4836 490.457C104.856 490.457 110.833 484.489 110.833 477.126C110.833 469.764 104.856 463.795 97.4836 463.795C90.111 463.795 84.1343 469.764 84.1343 477.126C84.1343 484.489 90.111 490.457 97.4836 490.457Z" fill="#AFD4E3"/>
<path d="M104.158 476.016H98.5962V470.461H96.3713V476.016H90.8091V478.237H96.3713V483.792H98.5962V478.237H104.158V476.016Z" fill="white"/>
<path d="M167.939 490.457C175.311 490.457 181.288 484.489 181.288 477.126C181.288 469.764 175.311 463.795 167.939 463.795C160.566 463.795 154.589 469.764 154.589 477.126C154.589 484.489 160.566 490.457 167.939 490.457Z" fill="#AFD4E3"/>
<path d="M174.613 478.237V476.015H161.264V478.237H174.613Z" fill="white"/>
<path d="M170.481 412.617L170.582 412.617C174.017 412.646 177.381 411.64 180.235 409.731C183.089 407.822 185.3 405.099 186.581 401.915C190.617 391.725 191.561 380.575 189.298 369.853C187.034 359.13 181.663 349.309 173.851 341.613C166.04 333.917 156.134 328.686 145.367 326.57C134.6 324.455 123.448 325.549 113.3 329.716C103.151 333.884 94.4538 340.94 88.2914 350.007C82.129 359.074 78.7735 369.751 78.6426 380.708C78.5118 391.665 81.6115 402.419 87.5557 411.63C93.4999 420.841 102.026 428.102 112.072 432.51C115.195 433.891 118.662 434.297 122.02 433.675C125.377 433.053 128.468 431.433 130.888 429.026C136.076 423.817 142.246 419.686 149.042 416.869C155.837 414.053 163.124 412.608 170.481 412.617Z" fill="white"/>
<path d="M141.748 395.709C151.949 395.709 160.219 387.45 160.219 377.263C160.219 367.076 151.949 358.818 141.748 358.818C131.547 358.818 123.277 367.076 123.277 377.263C123.277 387.45 131.547 395.709 141.748 395.709Z" fill="#F8D66D"/>
</g>
<defs>
<clipPath id="clip0">
<rect width="571" height="539" fill="white"/>
</clipPath>
</defs>
</svg>
